<svg width="102" height="123" viewBox="0 0 102 123" fill="none" xmlns="http://www.w3.org/2000/svg">
<path d="M87.94 52.9771C87.1208 52.9785 86.3356 53.3045 85.7563 53.8838C85.177 54.463 84.851 55.2483 84.8497 56.0675V106.456H75.9424L58.8454 70.889C61.2849 68.1317 62.3304 64.3034 61.536 60.639C61.169 58.8278 60.3787 57.1291 59.2296 55.6817C58.0806 54.2343 56.6055 53.0792 54.9248 52.3109V48.1494C54.9363 47.5733 54.8331 47.0007 54.6211 46.465C54.4091 45.9292 54.0926 45.4411 53.69 45.0289C53.2874 44.6168 52.8067 44.2889 52.2761 44.0644C51.7455 43.8399 51.1754 43.7233 50.5993 43.7214C49.8204 43.7209 49.0558 43.9298 48.3853 44.3261C47.7162 44.7337 47.1678 45.3124 46.7967 46.0024C46.4255 46.6924 46.245 47.4689 46.2738 48.2519V51.9419C43.7021 52.8756 41.5352 54.6749 40.1448 57.0313C38.7544 59.3876 38.2269 62.1542 38.6529 64.8569C39.0158 67.1816 40.0714 69.3428 41.6818 71.0581L25.2305 106.456H10.163C7.46688 106.439 4.88667 105.358 2.98353 103.448C1.08038 101.538 0.00820247 98.9539 0.000154741 96.2577V25.7121C-0.0305953 31.3599 4.52553 35.9621 10.1784 35.9929C10.4041 35.9934 10.6297 35.9866 10.8549 35.9724H86.423C86.423 35.9724 99.4149 34.8551 101.091 43.8649C100.469 43.928 99.8916 44.2188 99.4707 44.6813C99.0498 45.1439 98.8145 45.7456 98.8102 46.371C98.8102 50.0149 95.8428 52.9823 92.1374 52.9823H87.94V52.9771ZM77.444 115.502C78.0214 116.692 78.1027 118.061 77.6703 119.311C77.2378 120.56 76.3269 121.587 75.1378 122.165C74.4934 122.47 73.7906 122.633 73.0775 122.641C72.5218 122.656 71.9675 122.578 71.4375 122.411C71.3145 122.37 71.2018 122.303 71.0788 122.252C70.6621 122.08 70.2707 121.852 69.9154 121.575C69.7873 121.473 69.6592 121.381 69.5464 121.268C69.1048 120.866 68.7401 120.386 68.4702 119.853L62.0332 106.456L54.0484 89.8259C53.7287 89.1447 53.2214 88.5688 52.586 88.1658C51.9505 87.7627 51.2134 87.5493 50.4609 87.5504H50.4507C49.693 87.5527 48.9511 87.7671 48.3089 88.1692C47.6667 88.5714 47.15 89.1452 46.817 89.8259L39.0783 106.456L32.7592 120.017C32.4047 120.833 31.8386 121.538 31.1194 122.061C30.4003 122.584 29.5543 122.904 28.6694 122.99C28.3465 123.015 28.0339 122.98 27.7213 122.944C27.547 122.928 27.3677 122.918 27.1934 122.882C26.9474 122.831 26.7065 122.739 26.4657 122.651C26.3119 122.59 26.1582 122.549 26.0044 122.477C25.7527 122.344 25.5127 122.19 25.2869 122.016C25.1793 121.939 25.0563 121.878 24.9487 121.79C24.6208 121.513 24.3297 121.194 24.0825 120.842C23.5807 120.108 23.2831 119.254 23.2201 118.367C23.157 117.48 23.3309 116.592 23.7238 115.794L28.0595 106.456L44.808 70.4226C42.862 68.9879 41.5586 66.845 41.1795 64.4571C40.3852 59.4346 43.8087 54.7196 48.8312 53.9201V48.1494C48.8178 47.8273 48.8906 47.5075 49.0419 47.2228C49.1933 46.9382 49.4177 46.699 49.6922 46.5299C49.9667 46.367 50.2801 46.2811 50.5993 46.2811C50.9185 46.2811 51.2318 46.367 51.5064 46.5299C51.7799 46.6996 52.0033 46.9391 52.1537 47.2237C52.3041 47.5083 52.3761 47.8278 52.3623 48.1494V54.0892L52.4289 54.12C54.074 54.573 55.5615 55.4725 56.7266 56.7191C57.8917 57.9656 58.6889 59.5104 59.0299 61.1822C59.3951 62.8624 59.2792 64.6115 58.6954 66.2287C58.1116 67.8459 57.0836 69.2658 55.7294 70.3253L73.098 106.456L77.444 115.502V115.502ZM55.7243 63.0682C55.7304 62.3271 55.5902 61.5919 55.3119 60.905C55.0335 60.218 54.6224 59.5927 54.1021 59.0648C53.5818 58.5369 52.9626 58.1167 52.2797 57.8284C51.5969 57.5401 50.8639 57.3893 50.1227 57.3846C48.6153 57.3845 47.1684 57.9772 46.0944 59.0349C45.0434 60.0844 44.4486 61.5061 44.439 62.9914C44.4336 63.7321 44.5743 64.4667 44.8529 65.1531C45.1316 65.8394 45.5428 66.4642 46.063 66.9915C46.5832 67.5189 47.2023 67.9386 47.8848 68.2266C48.5673 68.5145 49.2999 68.6652 50.0407 68.6699H50.0817C53.1823 68.6699 55.7038 66.1689 55.7243 63.0682ZM50.4609 90.1129C50.1894 90.1108 49.9227 90.184 49.6902 90.3242C49.4578 90.4644 49.2686 90.6662 49.1438 90.9073L41.9022 106.456H59.1939L51.7268 90.9124C51.6127 90.6733 51.4333 90.4713 51.2093 90.3298C50.9853 90.1884 50.7258 90.1132 50.4609 90.1129V90.1129ZM92.1938 55.5396H87.94C87.8 55.5396 87.6658 55.5952 87.5668 55.6942C87.4678 55.7932 87.4122 55.9275 87.4122 56.0675V122.231C87.4118 122.365 87.4625 122.494 87.5539 122.592C87.6452 122.69 87.7705 122.75 87.9042 122.759H92.2297C94.6565 122.75 96.9806 121.779 98.6933 120.06C100.406 118.34 101.368 116.012 101.368 113.585V46.3659C101.368 48.7989 100.401 51.1323 98.6806 52.8527C96.9602 54.5731 94.6268 55.5396 92.1938 55.5396V55.5396ZM2.55753 25.7121V25.8044C2.57492 27.8202 3.38342 29.7485 4.80886 31.1739C6.2343 32.5994 8.16261 33.4079 10.1784 33.4252C10.4022 33.4189 10.626 33.4138 10.8498 33.4099H16.6359C17.595 26.7522 20.5178 20.5319 25.0307 15.5441H10.1887C7.93189 15.556 5.74268 16.3154 3.96327 17.7035C2.18386 19.0916 0.914549 21.0302 0.35378 23.2163C1.59403 23.4008 2.55753 24.4206 2.55753 25.707V25.7121ZM35.0398 10.8548L29.72 1.681C29.6225 1.51099 29.5711 1.31839 29.5711 1.12237C29.5711 0.92636 29.6225 0.733762 29.72 0.56375C29.8237 0.400559 29.9646 0.264339 30.1312 0.166321C30.2979 0.0683041 30.4854 0.0112969 30.6784 0C30.8734 0.00263415 31.0643 0.0560062 31.2323 0.154859C31.4004 0.253712 31.5398 0.394636 31.6368 0.56375L37.018 9.86562C41.3033 7.94095 45.9477 6.94585 50.6454 6.94585C55.3431 6.94585 59.9875 7.94095 64.2728 9.86562L69.6233 0.56375C69.7928 0.355551 70.0314 0.215032 70.2957 0.167693C70.56 0.120355 70.8325 0.169333 71.0638 0.30574C71.2951 0.442148 71.4698 0.656945 71.5562 0.911153C71.6426 1.16536 71.6351 1.44214 71.5349 1.69125L66.2562 10.865C70.446 13.1666 74.0546 16.3952 76.8063 20.3042C79.558 24.2133 81.3801 28.6994 82.1334 33.4201L19.1625 33.415C19.916 28.6957 21.7377 24.2109 24.4884 20.3028C27.2392 16.3947 30.8463 13.1667 35.0347 10.865L35.0398 10.8548ZM62.5969 24.2822C62.6049 24.6289 62.6811 24.9706 62.8212 25.2877C62.9612 25.6049 63.1624 25.8914 63.4132 26.1308C63.6641 26.3702 63.9596 26.5578 64.2829 26.6829C64.6063 26.8081 64.9512 26.8683 65.2978 26.8601C65.6448 26.8608 65.9886 26.793 66.3094 26.6607C66.6302 26.5283 66.9218 26.334 67.1674 26.0889C67.413 25.8437 67.6079 25.5525 67.7409 25.232C67.8738 24.9114 67.9423 24.5678 67.9423 24.2207C67.9405 23.6937 67.7827 23.1789 67.4889 22.7414C67.195 22.3038 66.7782 21.963 66.2911 21.7619C65.8039 21.5608 65.2681 21.5083 64.7511 21.6112C64.2342 21.714 63.7593 21.9676 63.3862 22.3399C63.1283 22.5931 62.9251 22.8967 62.7894 23.2317C62.6536 23.5667 62.5881 23.926 62.5969 24.2874V24.2822ZM33.2973 24.2515C33.3006 24.5981 33.3722 24.9407 33.508 25.2596C33.6437 25.5786 33.8409 25.8676 34.0884 26.1104C34.3359 26.3531 34.6287 26.5447 34.9503 26.6742C35.2718 26.8037 35.6157 26.8686 35.9623 26.8653C36.3109 26.8701 36.657 26.8051 36.98 26.6739C37.3031 26.5427 37.5966 26.3481 37.8432 26.1016C38.1268 25.8636 38.3578 25.5692 38.5216 25.2372C38.6854 24.9051 38.7783 24.5426 38.7945 24.1727C38.8106 23.8027 38.7497 23.4335 38.6155 23.0884C38.4813 22.7433 38.2768 22.4299 38.0149 22.1681C37.7531 21.9063 37.4397 21.7018 37.0946 21.5676C36.7495 21.4334 36.3803 21.3724 36.0104 21.3886C35.6405 21.4047 35.2779 21.4976 34.9459 21.6614C34.6138 21.8252 34.3194 22.0562 34.0814 22.3399C33.8289 22.5894 33.6292 22.8873 33.4945 23.2158C33.3598 23.5442 33.2927 23.8965 33.2973 24.2515Z" fill="white"/>
</svg>
